<svg xmlns="http://www.w3.org/2000/svg" width="64" height="64" viewBox="0 0 64 64">
  <rect x="6" y="6" width="42" height="52" rx="3" ry="3" fill="#FFFFFF" stroke="#D1D5DB" stroke-width="1.5"/>
  <path d="M48 6v14a2 2 0 0 1-2 2H34a2 2 0 0 1-2-2V6h16z" fill="#ef4444"/>
  <path d="M48 6v14a2 2 0 0 1-2 2H34z" fill="#dc2626" opacity="0.12"/>
  <g opacity="0.9" fill="#9CA3AF">
    <rect x="14" y="20" width="26" height="2" rx="1"/>
    <rect x="14" y="26" width="26" height="2" rx="1"/>
    <rect x="14" y="32" width="20" height="2" rx="1"/>
  </g>
  <rect x="6" y="42" width="42" height="16" rx="2" ry="2" fill="#ef4444"/>
  <text x="27" y="53.5" font-family="Arial, Helvetica, sans-serif" font-size="9.5" font-weight="700" fill="#FFFFFF" text-anchor="middle" dominant-baseline="middle">PDF</text>
  <rect x="6" y="6" width="42" height="52" rx="3" ry="3" fill="none" stroke="#000" stroke-opacity="0.03" stroke-width="0.5"/>
</svg>
